<?xml version="1.0" encoding="UTF-8" standalone="no"?>
<!-- Created with Inkscape (http://www.inkscape.org/) -->

<svg
   xmlns:osb="http://www.openswatchbook.org/uri/2009/osb"
   xmlns:dc="http://purl.org/dc/elements/1.1/"
   xmlns:cc="http://creativecommons.org/ns#"
   xmlns:rdf="http://www.w3.org/1999/02/22-rdf-syntax-ns#"
   xmlns:svg="http://www.w3.org/2000/svg"
   xmlns="http://www.w3.org/2000/svg"
   xmlns:sodipodi="http://sodipodi.sourceforge.net/DTD/sodipodi-0.dtd"
   xmlns:inkscape="http://www.inkscape.org/namespaces/inkscape"
   width="3000"
   height="3000"
   viewBox="0 0 3000 3000"
   version="1.1"
   id="svg4531"
   inkscape:version="0.92.2 (5c3e80d, 2017-08-06)"
   sodipodi:docname="logo-black.svg"
   inkscape:export-filename="I:\Test Website\images\logo-black.png"
   inkscape:export-xdpi="96"
   inkscape:export-ydpi="96">
  <defs
     id="defs4525">
    <linearGradient
       id="linearGradient8129"
       osb:paint="solid">
      <stop
         style="stop-color:#000000;stop-opacity:1;"
         offset="0"
         id="stop8127" />
    </linearGradient>
    <linearGradient
       osb:paint="gradient"
       id="linearGradient7975-0">
      <stop
         id="stop8122"
         offset="0"
         style="stop-color:#ffffff;stop-opacity:1;" />
      <stop
         id="stop8124"
         offset="1"
         style="stop-color:#ffffff;stop-opacity:0;" />
    </linearGradient>
    <linearGradient
       osb:paint="gradient"
       id="linearGradient7975">
      <stop
         id="stop8117"
         offset="0"
         style="stop-color:#ffffff;stop-opacity:1;" />
      <stop
         id="stop8119"
         offset="1"
         style="stop-color:#ffffff;stop-opacity:0;" />
    </linearGradient>
  </defs>
  <sodipodi:namedview
     id="base"
     pagecolor="#ffffff"
     bordercolor="#666666"
     borderopacity="1.0"
     inkscape:pageopacity="0.0"
     inkscape:pageshadow="2"
     inkscape:zoom="0.17866667"
     inkscape:cx="950.18032"
     inkscape:cy="1500"
     inkscape:document-units="px"
     inkscape:current-layer="layer1"
     showgrid="true"
     units="px"
     width="2000px"
     inkscape:window-width="1366"
     inkscape:window-height="705"
     inkscape:window-x="-8"
     inkscape:window-y="-8"
     inkscape:window-maximized="1"
     showguides="false">
    <inkscape:grid
       type="xygrid"
       id="grid4533"
       spacingx="0.5"
       spacingy="0.5" />
  </sodipodi:namedview>
  <metadata
     id="metadata4528">
    <rdf:RDF>
      <cc:Work
         rdf:about="">
        <dc:format>image/svg+xml</dc:format>
        <dc:type
           rdf:resource="http://purl.org/dc/dcmitype/StillImage" />
        <dc:title></dc:title>
      </cc:Work>
    </rdf:RDF>
  </metadata>
  <g
     inkscape:label="Layer 1"
     inkscape:groupmode="layer"
     id="layer1"
     transform="translate(0,1232.1667)">
    <rect
       style="opacity:0.997;fill:#000000;fill-opacity:1;stroke:#000000;stroke-width:1.00800002;stroke-miterlimit:4;stroke-dasharray:none;stroke-opacity:1"
       id="rect41"
       width="2800"
       height="2800"
       x="80"
       y="-1112.1667" />
    <path
       style="opacity:0.997;fill:#ffffff;fill-opacity:1;stroke:#000000;stroke-width:2.48403788;stroke-miterlimit:4;stroke-dasharray:none;stroke-opacity:1"
       d="M 1200,-712.16671 A 578.94845,600.00037 0 0 0 621.0508,-112.1679 578.94845,600.00037 0 0 0 1200,487.8333 V 257.4526 a 347.30215,359.93087 0 0 1 -3.1184,0.1151 347.30215,359.93087 0 0 1 -347.3011,-359.9298 347.30215,359.93087 0 0 1 347.301,-359.93214 347.30215,359.93087 0 0 1 3.1185,0.16208 z"
       id="path26"
       inkscape:connector-curvature="0" />
    <path
       inkscape:connector-curvature="0"
       id="path51"
       d="M 1840,-721.78601 A 578.94845,600.00037 0 0 1 2418.9492,-121.7872 578.94845,600.00037 0 0 1 1840,478.21399 V 247.8333 a 347.30215,359.93087 0 0 0 3.1184,0.11508 347.30215,359.93087 0 0 0 347.3011,-359.92978 347.30215,359.93087 0 0 0 -347.301,-359.93214 347.30215,359.93087 0 0 0 -3.1185,0.16208 z"
       style="opacity:0.997;fill:#ffffff;fill-opacity:1;stroke:#000000;stroke-width:2.48403788;stroke-miterlimit:4;stroke-dasharray:none;stroke-opacity:1" />
    <path
       style="opacity:0.997;fill:#ffffff;fill-opacity:1;stroke:#000000;stroke-width:2.48403788;stroke-miterlimit:4;stroke-dasharray:none;stroke-opacity:1"
       d="M 399.95115,760.5384 A 600.00037,578.94845 0 0 0 999.95117,1339.4876 600.00037,578.94845 0 0 0 1520,1047.8333 a 600.00037,578.94845 0 0 0 520.3652,291.6543 600.00037,578.94845 0 0 0 600.002,-578.9492 h -230.3809 a 359.93087,347.30215 0 0 1 0.1152,3.1191 359.93087,347.30215 0 0 1 -359.9297,347.3008 359.93087,347.30215 0 0 1 -359.9316,-347.3008 359.93087,347.30215 0 0 1 0.1621,-3.1191 h -90.4512 -159.5839 -70.7969 a 359.93087,347.30215 0 0 1 0.1152,3.1191 359.93087,347.30215 0 0 1 -359.9297,347.3008 359.93087,347.30215 0 0 1 -359.93165,-347.3008 359.93087,347.30215 0 0 1 0.1621,-3.1191 z"
       id="path53"
       inkscape:connector-curvature="0" />
    <flowRoot
       xml:space="preserve"
       id="flowRoot66"
       style="fill:black;fill-opacity:1;stroke:none;font-family:sans-serif;font-style:normal;font-weight:normal;font-size:40px;line-height:1.25;letter-spacing:0px;word-spacing:0px"><flowRegion
         id="flowRegion68"><rect
           id="rect70"
           width="40"
           height="60"
           x="580"
           y="2400" /></flowRegion><flowPara
         id="flowPara72"></flowPara></flowRoot>  </g>
</svg>
